# xmcd CD database file
#
# Track frame offsets:
#	182
#	12070
#	24777
#	41917
#	54017
#	68352
#	81050
#	91660
#	103102
#	119187
#	130187
#	143067
#	153675
#	164245
#	174337
#	184237
#	197287
#	218812
#	230085
#	239025
#	252345
#	265835
#	278407
#	291807
#
# Disc length: 4045 seconds
#
# Revision: 1
# Processed by: cddbd v1.5.2PL0 Copyright (c) Steve Scherf et al.
# Submitted via: CDex 1.51
#
DISCID=4e0fcb18
DTITLE=Connie Francis - Connie Francis 24 Greatest Hits
DYEAR=1960
DGENRE=Oldies
TTITLE0=Where The Boys Are
TTITLE1=If I Didn't Care
TTITLE2=Hurt
TTITLE3=Vacation
TTITLE4=Are You Lonesome Tonight
TTITLE5=Together
TTITLE6=Among My Souvenirs
TTITLE7=Everbody's Somebody's Fool
TTITLE8=Old Time Rock "N" Roll
TTITLE9=My Heart Has A Mind Of Its Own
TTITLE10=Cryin' Time
TTITLE11=My Happiness
TTITLE12=Lipstick On Your Collar
TTITLE13=Who's Sorry now
TTITLE14=Stupid Cupid
TTITLE15=Misty Blue
TTITLE16=Torn Between Two Lovers
TTITLE17=Breakin' In A Brand New Broken Heart
TTITLE18=Many Tears Ago
TTITLE19=Don't Break The Heart That Loves You
TTITLE20=Cry
TTITLE21=Frankie
TTITLE22=Second Hand Love
TTITLE23=Something Stupid
EXTD=YEAR: 1960
EXTT0=
EXTT1=
EXTT2=
EXTT3=
EXTT4=
EXTT5=
EXTT6=
EXTT7=
EXTT8=
EXTT9=
EXTT10=
EXTT11=
EXTT12=
EXTT13=
EXTT14=
EXTT15=
EXTT16=
EXTT17=
EXTT18=
EXTT19=
EXTT20=
EXTT21=
EXTT22=
EXTT23=
PLAYORDER=
